#Comment line ignore any data following # character 
#Hierarchical Translation and Rotation (.htr) file 
[Header]	
#Header keywords are followed by a single value 
FileType HTR		#Single word string
DataType HTRS		#Translation followed by rotation and scale data
FileVersion 1		#integer
NumSegments 84		#integer
NumFrames 2		#integer
DataFrameRate 30		#integer, data frame rate in this file
EulerRotationOrder ZYX
CalibrationUnits mm
RotationUnits Degrees
GlobalAxisofGravity Y
BoneLengthAxis Y
ScaleFactor 1.00
[SegmentNames&Hierarchy]
#CHILD	PARENT
MASTER GLOBAL
root MASTER
chest root
L_mid_tent01 root
R_mid_tent01 root
spine01 root
Bip01_Neck chest
L_humerus chest
R_humerus chest
weapon_bone chest
Bip01_Head Bip01_Neck
eye_left_bone Bip01_Head
eye_right_bone Bip01_Head
L_forearm L_humerus
L_front_hand L_forearm
L_weapon_bone L_forearm
L_front_hand01_01 L_front_hand
L_front_hand02_01 L_front_hand
L_front_hand03_01 L_front_hand
L_front_hand01_02 L_front_hand01_01
L_front_hand02_02 L_front_hand02_01
L_front_hand03_02 L_front_hand03_01
R_forearm R_humerus
R_front_hand R_forearm
R_weapon_bone R_forearm
R_front_hand01_01 R_front_hand
R_front_hand02_01 R_front_hand
R_front_hand03_01 R_front_hand
R_front_hand01_02 R_front_hand01_01
R_front_hand02_02 R_front_hand02_01
R_front_hand03_02 R_front_hand03_01
null_rope01_connect L_mid_tent01
Rope1_Seg01 null_rope01_connect
Rope1_Seg02 Rope1_Seg01
Rope1_Seg03 Rope1_Seg02
Rope1_Seg04 Rope1_Seg03
Rope1_Seg05 Rope1_Seg04
Rope1_Seg06 Rope1_Seg05
Rope1_Seg07 Rope1_Seg06
Rope1_Seg09 Rope1_Seg07
L_mid_hand01 Rope1_Seg09
L_mid_hand02 Rope1_Seg09
L_mid_hand03 Rope1_Seg09
null_rope02_connect R_mid_tent01
Rope2_Seg01 null_rope02_connect
Rope2_Seg02 Rope2_Seg01
Rope2_Seg03 Rope2_Seg02
Rope2_Seg04 Rope2_Seg03
Rope2_Seg05 Rope2_Seg04
Rope2_Seg06 Rope2_Seg05
Rope2_Seg07 Rope2_Seg06
Rope2_Seg09 Rope2_Seg07
R_mid_hand01 Rope2_Seg09
R_mid_hand02 Rope2_Seg09
R_mid_hand03 Rope2_Seg09
spine02 spine01
spine03 spine02
pelvis spine03
null_rope03_connect pelvis
null_rope04_connect pelvis
Rope3_Seg01 null_rope03_connect
Rope3_Seg02 Rope3_Seg01
Rope3_Seg03 Rope3_Seg02
Rope3_Seg04 Rope3_Seg03
Rope3_Seg05 Rope3_Seg04
Rope3_Seg06 Rope3_Seg05
Rope3_Seg07 Rope3_Seg06
Rope3_Seg08 Rope3_Seg07
Rope3_Seg09 Rope3_Seg08
R_rear_hand01 Rope3_Seg09
R_rear_hand02 Rope3_Seg09
R_rear_hand03 Rope3_Seg09
Rope4_Seg01 null_rope04_connect
Rope4_Seg02 Rope4_Seg01
Rope4_Seg03 Rope4_Seg02
Rope4_Seg04 Rope4_Seg03
Rope4_Seg05 Rope4_Seg04
Rope4_Seg06 Rope4_Seg05
Rope4_Seg07 Rope4_Seg06
Rope4_Seg08 Rope4_Seg07
Rope4_Seg09 Rope4_Seg08
L_rear_hand01 Rope4_Seg09
L_rear_hand02 Rope4_Seg09
L_rear_hand03 Rope4_Seg09
[BasePosition]
#SegmentName Tx, Ty, Tz, Rx, Ry, Rz, BoneLength
MASTER 0.000000 0.000000 0.000000 -90.000000 0.000000 0.000000 10.000000 
root 0.000000 0.000000 0.000000 0.000000 0.000000 0.000000 10.000000 
chest 0.000000 0.000000 0.000000 0.000000 0.000000 0.000000 10.000000 
L_mid_tent01 0.000000 0.000000 0.000000 0.000000 0.000000 0.000000 10.000000 
R_mid_tent01 0.000000 0.000000 0.000000 0.000000 0.000000 0.000000 10.000000 
spine01 0.000000 0.000000 0.000000 0.000000 0.000000 0.000000 10.000000 
Bip01_Neck 0.000000 0.000000 0.000000 0.000000 0.000000 0.000000 10.000000 
L_humerus 0.000000 0.000000 0.000000 0.000000 0.000000 0.000000 10.000000 
R_humerus 0.000000 0.000000 0.000000 0.000000 0.000000 0.000000 10.000000 
weapon_bone 0.000000 0.000000 0.000000 0.000000 0.000000 0.000000 10.000000 
Bip01_Head 0.000000 0.000000 0.000000 0.000000 0.000000 0.000000 10.000000 
eye_left_bone 0.000000 0.000000 0.000000 0.000000 0.000000 0.000000 10.000000 
eye_right_bone 0.000000 0.000000 0.000000 0.000000 0.000000 0.000000 10.000000 
L_forearm 0.000000 0.000000 0.000000 0.000000 0.000000 0.000000 10.000000 
L_front_hand 0.000000 0.000000 0.000000 0.000000 0.000000 0.000000 10.000000 
L_weapon_bone 0.000000 0.000000 0.000000 0.000000 0.000000 0.000000 10.000000 
L_front_hand01_01 0.000000 0.000000 0.000000 0.000000 0.000000 0.000000 10.000000 
L_front_hand02_01 0.000000 0.000000 0.000000 0.000000 0.000000 0.000000 10.000000 
L_front_hand03_01 0.000000 0.000000 0.000000 0.000000 0.000000 0.000000 10.000000 
L_front_hand01_02 0.000000 0.000000 0.000000 0.000000 0.000000 0.000000 10.000000 
L_front_hand02_02 0.000000 0.000000 0.000000 0.000000 0.000000 0.000000 10.000000 
L_front_hand03_02 0.000000 0.000000 0.000000 0.000000 0.000000 0.000000 10.000000 
R_forearm 0.000000 0.000000 0.000000 0.000000 0.000000 0.000000 10.000000 
R_front_hand 0.000000 0.000000 0.000000 0.000000 0.000000 0.000000 10.000000 
R_weapon_bone 0.000000 0.000000 0.000000 0.000000 0.000000 0.000000 10.000000 
R_front_hand01_01 0.000000 0.000000 0.000000 0.000000 0.000000 0.000000 10.000000 
R_front_hand02_01 0.000000 0.000000 0.000000 0.000000 0.000000 0.000000 10.000000 
R_front_hand03_01 0.000000 0.000000 0.000000 0.000000 0.000000 0.000000 10.000000 
R_front_hand01_02 0.000000 0.000000 0.000000 0.000000 0.000000 0.000000 10.000000 
R_front_hand02_02 0.000000 0.000000 0.000000 0.000000 0.000000 0.000000 10.000000 
R_front_hand03_02 0.000000 0.000000 0.000000 0.000000 0.000000 0.000000 10.000000 
null_rope01_connect 0.000000 0.000000 0.000000 0.000000 0.000000 0.000000 10.000000 
Rope1_Seg01 0.000000 0.000000 0.000000 0.000000 0.000000 0.000000 10.000000 
Rope1_Seg02 0.000000 0.000000 0.000000 0.000000 0.000000 0.000000 10.000000 
Rope1_Seg03 0.000000 0.000000 0.000000 0.000000 0.000000 0.000000 10.000000 
Rope1_Seg04 0.000000 0.000000 0.000000 0.000000 0.000000 0.000000 10.000000 
Rope1_Seg05 0.000000 0.000000 0.000000 0.000000 0.000000 0.000000 10.000000 
Rope1_Seg06 0.000000 0.000000 0.000000 0.000000 0.000000 0.000000 10.000000 
Rope1_Seg07 0.000000 0.000000 0.000000 0.000000 0.000000 0.000000 10.000000 
Rope1_Seg09 0.000000 0.000000 0.000000 0.000000 0.000000 0.000000 10.000000 
L_mid_hand01 0.000000 0.000000 0.000000 0.000000 0.000000 0.000000 10.000000 
L_mid_hand02 0.000000 0.000000 0.000000 0.000000 0.000000 0.000000 10.000000 
L_mid_hand03 0.000000 0.000000 0.000000 0.000000 0.000000 0.000000 10.000000 
null_rope02_connect 0.000000 0.000000 0.000000 0.000000 0.000000 0.000000 10.000000 
Rope2_Seg01 0.000000 0.000000 0.000000 0.000000 0.000000 0.000000 10.000000 
Rope2_Seg02 0.000000 0.000000 0.000000 0.000000 0.000000 0.000000 10.000000 
Rope2_Seg03 0.000000 0.000000 0.000000 0.000000 0.000000 0.000000 10.000000 
Rope2_Seg04 0.000000 0.000000 0.000000 0.000000 0.000000 0.000000 10.000000 
Rope2_Seg05 0.000000 0.000000 0.000000 0.000000 0.000000 0.000000 10.000000 
Rope2_Seg06 0.000000 0.000000 0.000000 0.000000 0.000000 0.000000 10.000000 
Rope2_Seg07 0.000000 0.000000 0.000000 0.000000 0.000000 0.000000 10.000000 
Rope2_Seg09 0.000000 0.000000 0.000000 0.000000 0.000000 0.000000 10.000000 
R_mid_hand01 0.000000 0.000000 0.000000 0.000000 0.000000 0.000000 10.000000 
R_mid_hand02 0.000000 0.000000 0.000000 0.000000 0.000000 0.000000 10.000000 
R_mid_hand03 0.000000 0.000000 0.000000 0.000000 0.000000 0.000000 10.000000 
spine02 0.000000 0.000000 0.000000 0.000000 0.000000 0.000000 10.000000 
spine03 0.000000 0.000000 0.000000 0.000000 0.000000 0.000000 10.000000 
pelvis 0.000000 0.000000 0.000000 0.000000 0.000000 0.000000 10.000000 
null_rope03_connect 0.000000 0.000000 0.000000 0.000000 0.000000 0.000000 10.000000 
null_rope04_connect 0.000000 0.000000 0.000000 0.000000 0.000000 0.000000 10.000000 
Rope3_Seg01 0.000000 0.000000 0.000000 0.000000 0.000000 0.000000 10.000000 
Rope3_Seg02 0.000000 0.000000 0.000000 0.000000 0.000000 0.000000 10.000000 
Rope3_Seg03 0.000000 0.000000 0.000000 0.000000 0.000000 0.000000 10.000000 
Rope3_Seg04 0.000000 0.000000 0.000000 0.000000 0.000000 0.000000 10.000000 
Rope3_Seg05 0.000000 0.000000 0.000000 0.000000 0.000000 0.000000 10.000000 
Rope3_Seg06 0.000000 0.000000 0.000000 0.000000 0.000000 0.000000 10.000000 
Rope3_Seg07 0.000000 0.000000 0.000000 0.000000 0.000000 0.000000 10.000000 
Rope3_Seg08 0.000000 0.000000 0.000000 0.000000 0.000000 0.000000 10.000000 
Rope3_Seg09 0.000000 0.000000 0.000000 0.000000 0.000000 0.000000 10.000000 
R_rear_hand01 0.000000 0.000000 0.000000 0.000000 0.000000 0.000000 10.000000 
R_rear_hand02 0.000000 0.000000 0.000000 0.000000 0.000000 0.000000 10.000000 
R_rear_hand03 0.000000 0.000000 0.000000 0.000000 0.000000 0.000000 10.000000 
Rope4_Seg01 0.000000 0.000000 0.000000 0.000000 0.000000 0.000000 10.000000 
Rope4_Seg02 0.000000 0.000000 0.000000 0.000000 0.000000 0.000000 10.000000 
Rope4_Seg03 0.000000 0.000000 0.000000 0.000000 0.000000 0.000000 10.000000 
Rope4_Seg04 0.000000 0.000000 0.000000 0.000000 0.000000 0.000000 10.000000 
Rope4_Seg05 0.000000 0.000000 0.000000 0.000000 0.000000 0.000000 10.000000 
Rope4_Seg06 0.000000 0.000000 0.000000 0.000000 0.000000 0.000000 10.000000 
Rope4_Seg07 0.000000 0.000000 0.000000 0.000000 0.000000 0.000000 10.000000 
Rope4_Seg08 0.000000 0.000000 0.000000 0.000000 0.000000 0.000000 10.000000 
Rope4_Seg09 0.000000 0.000000 0.000000 0.000000 0.000000 0.000000 10.000000 
L_rear_hand01 0.000000 0.000000 0.000000 0.000000 0.000000 0.000000 10.000000 
L_rear_hand02 0.000000 0.000000 0.000000 0.000000 0.000000 0.000000 10.000000 
L_rear_hand03 0.000000 0.000000 0.000000 0.000000 0.000000 0.000000 10.000000 
#Beginning of Data. Separated by tabs
#Fr	Tx	Ty	Tz	Rx	Ry	Rz	SF
[MASTER]
3 -0.000067 462.332092 115.592216 0.001660 0.001660 0.001660 476.563263
4 -0.000102 693.498169 173.388336 0.001660 0.001660 0.001660 714.844910
[root]
3 -16.502302 -10.427322 1466.511353 -91.626671 -9.232696 -89.796577 1466.641235
4 -16.502300 -28.985443 1481.808594 -91.546013 -7.257807 -90.113014 1482.183960
[chest]
3 -84.512650 -34.090519 0.000000 -2.054443 0.471487 168.439987 91.129311
4 -84.512650 -34.090519 0.000000 -2.155157 0.555898 169.531052 91.129311
[L_mid_tent01]
3 27.299065 22.179129 -249.918701 -16.493149 23.632998 32.046127 252.381683
4 27.299068 22.179140 -249.918701 -12.689778 28.752871 42.591351 252.381683
[R_mid_tent01]
3 23.228794 24.509907 226.238495 -172.245590 -24.466595 36.726540 228.744751
4 23.228794 24.509907 226.238495 -176.454788 -27.111309 43.597069 228.744751
[spine01]
3 -0.361383 -0.195265 0.000000 0.001950 0.001307 22.318958 0.410763
4 -0.361383 -0.195265 0.000000 0.001951 0.001305 22.427364 0.410763
[Bip01_Neck]
3 165.484543 71.581718 0.000119 176.643677 -1.657967 43.431911 180.302734
4 165.484543 71.581718 0.000119 176.643677 -1.657967 43.431911 180.302734
[L_humerus]
3 -13.983130 -135.272980 -120.471481 -8.072466 84.049248 85.512390 181.680161
4 -13.983130 -135.272980 -120.471481 148.532181 84.590569 -118.389870 181.680161
[R_humerus]
3 -13.983309 -135.273102 125.287651 74.882011 -82.793617 23.880913 184.909012
4 -13.983309 -135.273102 125.287651 162.450119 -80.977768 -64.921776 184.909012
[weapon_bone]
3 235.964890 -300.705902 0.000000 0.000000 -89.951546 -128.212341 382.234833
4 235.964890 -300.705902 0.000000 0.000000 -89.951546 -128.212341 382.234833
[Bip01_Head]
3 213.443588 185.717133 11.755606 4.962490 2.797846 -43.898750 283.173492
4 213.443344 185.718002 11.744927 4.962490 2.797846 -43.898743 283.173401
[eye_left_bone]
3 -24.626970 125.451866 -64.772606 0.000000 -90.000000 -99.840431 143.318359
4 -24.626970 125.451866 -64.772606 0.000000 -90.000000 -99.840431 143.318359
[eye_right_bone]
3 -24.626970 125.451866 64.327362 0.000000 -89.965736 80.156380 143.117676
4 -24.626970 125.451866 64.327362 0.000000 -89.972023 80.156380 143.117676
[L_forearm]
3 322.776093 0.000000 -0.000119 0.000364 -0.002319 -107.836807 322.776093
4 322.776093 0.000000 -0.000119 0.000260 -0.002333 -102.740669 322.776093
[L_front_hand]
3 241.149185 -0.042021 -3.300071 -178.575836 -1.768837 -30.242264 241.171753
4 241.149185 -0.042021 -3.300071 -178.608322 -1.790269 -29.300268 241.171753
[L_weapon_bone]
3 156.183838 0.000000 0.000000 0.000014 0.000007 0.000001 156.183838
4 156.183838 0.000000 0.000000 0.000014 0.000007 0.000001 156.183838
[L_front_hand01_01]
3 86.095154 20.947098 -0.655860 -0.366594 -0.477154 75.385574 88.609184
4 86.095154 20.947098 -0.655860 -0.366594 -0.477154 75.385574 88.609184
[L_front_hand02_01]
3 86.935165 -11.437475 24.513514 154.399796 -59.883835 -61.369587 91.046425
4 86.935165 -11.437475 24.513514 154.399796 -59.883835 -61.369587 91.046425
[L_front_hand03_01]
3 86.637497 -14.123976 -20.424902 -153.913849 58.118122 -62.702866 90.126129
4 86.637497 -14.123976 -20.424902 -153.913879 58.118130 -62.702892 90.126129
[L_front_hand01_02]
3 71.020905 -0.000179 0.000030 0.000323 -0.002325 -105.825325 71.020905
4 71.020905 -0.000179 0.000030 0.000322 -0.002325 -105.780128 71.020905
[L_front_hand02_02]
3 71.020927 -0.000119 0.000060 0.000323 -0.002325 -105.825325 71.020927
4 71.020927 -0.000119 0.000060 0.000322 -0.002325 -105.780128 71.020927
[L_front_hand03_02]
3 71.020905 -0.000060 0.000060 0.000323 -0.002325 -105.825325 71.020905
4 71.020905 -0.000060 0.000060 0.000322 -0.002325 -105.780128 71.020905
[R_forearm]
3 322.776428 -0.000060 0.000030 0.204138 0.054874 -106.163086 322.776428
4 322.776428 -0.000060 0.000030 0.210856 0.035740 -101.123207 322.776428
[R_front_hand]
3 238.847015 -0.006795 2.210259 -2.014478 -10.778469 -29.646654 238.857239
4 238.847015 -0.006795 2.210259 -2.221781 -10.738686 -28.534069 238.857239
[R_weapon_bone]
3 155.664093 0.002503 -0.000030 0.003487 0.001180 -90.988930 155.664078
4 155.664093 0.002503 -0.000030 0.003487 0.001180 -90.988930 155.664078
[R_front_hand01_01]
3 87.624611 14.231146 22.918642 -154.633499 -59.950619 61.746044 91.683487
4 87.624611 14.231146 22.918642 -154.633499 -59.950642 61.746071 91.683487
[R_front_hand02_01]
3 89.356956 14.367283 -19.491137 154.602661 58.302849 63.744389 92.579636
4 89.356956 14.367283 -19.491137 154.602661 58.302849 63.744381 92.579636
[R_front_hand03_01]
3 87.286232 -22.307278 -0.143439 0.162155 -0.423168 -75.767921 90.091743
4 87.286232 -22.307278 -0.143439 0.162155 -0.423168 -75.767921 90.091743
[R_front_hand01_02]
3 71.020905 0.000060 0.000119 0.002323 -0.000334 106.381714 71.020905
4 71.020905 0.000060 0.000119 0.002323 -0.000334 106.381714 71.020905
[R_front_hand02_02]
3 71.020844 -0.000030 -0.000119 0.002323 -0.000334 106.381714 71.020836
4 71.020844 -0.000030 -0.000119 0.002323 -0.000334 106.381714 71.020836
[R_front_hand03_02]
3 71.020905 0.000000 0.000030 0.002323 -0.000334 106.381714 71.020905
4 71.020905 0.000000 0.000030 0.002323 -0.000334 106.381714 71.020905
[null_rope01_connect]
3 328.732483 0.000000 -0.000238 -150.600922 -60.034107 -145.486069 328.732483
4 328.732483 0.000000 -0.000238 -151.181656 -57.301353 -157.284485 328.732483
[Rope1_Seg01]
3 0.000038 -0.000065 0.000145 112.566795 15.362398 -144.249405 0.000164
4 0.000038 -0.000079 0.000142 132.727249 31.844347 -174.370758 0.000167
[Rope1_Seg02]
3 139.999863 -0.000179 0.000000 -40.800343 15.988121 -11.785521 139.999863
4 139.999863 -0.000179 0.000000 178.900146 -70.980026 179.810303 139.999863
[Rope1_Seg03]
3 139.999924 0.000060 -0.000060 -86.149170 49.179775 30.350000 139.999924
4 139.999924 0.000060 -0.000060 -57.436470 -57.319534 -13.522455 139.999924
[Rope1_Seg04]
3 139.999924 -0.000060 -0.000119 1.513950 -10.894710 6.469135 139.999924
4 139.999924 -0.000060 -0.000119 -1.907728 -0.451760 -2.568115 139.999924
[Rope1_Seg05]
3 139.999832 0.000119 -0.000060 0.112157 -2.364968 2.077093 139.999832
4 139.999832 0.000119 -0.000060 -0.181255 -0.033359 -0.250520 139.999832
[Rope1_Seg06]
3 139.999954 0.000119 -0.000060 0.015780 -0.305013 0.268686 139.999954
4 139.999954 0.000119 -0.000060 -0.003285 0.001660 0.001660 139.999954
[Rope1_Seg07]
3 139.999985 0.000060 0.000000 0.006605 0.001660 0.001660 139.999985
4 139.999985 0.000060 0.000000 0.006605 0.001660 0.001660 139.999985
[Rope1_Seg09]
3 121.602913 0.000119 -0.000089 -89.793175 -1.359789 0.847147 121.602913
4 121.602913 0.000119 -0.000089 -89.793175 -1.359789 0.847147 121.602913
[L_mid_hand01]
3 103.859421 1.038730 8.195221 127.008408 -65.676300 -35.012211 104.187431
4 103.859421 1.038730 8.195221 128.844925 -66.712723 -37.020279 104.187431
[L_mid_hand02]
3 105.572853 -4.139662 -10.864139 -166.682281 42.892521 -70.228371 106.211075
4 105.572853 -4.139662 -10.864139 -167.882584 43.183556 -71.986374 106.211075
[L_mid_hand03]
3 104.641464 17.579376 -3.913581 -6.788666 17.538548 72.343208 106.179977
4 104.641464 17.579376 -3.913581 -6.373020 17.687300 73.717346 106.179977
[null_rope02_connect]
3 328.732849 0.000179 -0.000119 -133.329453 65.578644 -13.918337 328.732849
4 328.732849 0.000179 -0.000119 -132.281998 63.953590 -4.871976 328.732849
[Rope2_Seg01]
3 0.000040 0.000145 0.000000 -68.628242 19.569767 -32.680408 0.000151
4 0.000041 0.000142 0.000000 -85.574951 28.587835 -19.547169 0.000147
[Rope2_Seg02]
3 139.999741 -0.000060 -0.000119 57.415508 5.620888 -5.804246 139.999756
4 139.999741 -0.000060 -0.000119 -2.880055 -9.612222 6.069968 139.999756
[Rope2_Seg03]
3 140.000107 0.000030 0.000000 107.622055 -4.964581 -60.638481 140.000107
4 140.000107 0.000030 0.000000 -99.847343 -43.440556 145.762451 140.000107
[Rope2_Seg04]
3 139.999802 0.000000 -0.000060 -0.240416 -28.803854 7.129745 139.999802
4 139.999802 0.000000 -0.000060 142.918320 -27.245377 25.024906 139.999802
[Rope2_Seg05]
3 139.999985 -0.000060 0.000119 -0.078965 -3.816540 1.083065 139.999985
4 139.999985 -0.000060 0.000119 3.233635 4.970984 -0.709744 139.999985
[Rope2_Seg06]
3 139.999893 -0.000030 -0.000119 -0.053596 -0.591748 0.165146 139.999893
4 139.999893 -0.000030 -0.000119 0.577532 1.269084 -0.254086 139.999893
[Rope2_Seg07]
3 139.999893 0.000060 -0.000060 -0.052743 0.001660 0.001659 139.999893
4 139.999893 0.000060 -0.000060 -0.052743 0.001660 0.001659 139.999893
[Rope2_Seg09]
3 121.338966 0.000089 -0.000060 33.793236 -1.359788 -0.847141 121.338966
4 121.338966 0.000089 -0.000060 33.793236 -1.359788 -0.847141 121.338966
[R_mid_hand01]
3 104.680779 11.144459 -10.335981 -18.460539 44.531563 67.275063 105.778534
4 104.680779 11.144459 -10.335981 -17.254469 44.921875 68.987289 105.778534
[R_mid_hand02]
3 104.070427 2.443552 8.231699 52.565647 -65.920616 35.485355 104.424065
4 104.070427 2.443552 8.231699 50.757656 -66.920883 37.459167 104.424065
[R_mid_hand03]
3 106.028137 -11.221827 -5.996406 -176.446564 15.418314 -74.140053 106.788818
4 106.028137 -11.221827 -5.996406 -176.797501 15.492968 -75.452667 106.788818
[spine02]
3 129.756927 0.001550 0.000119 -0.115402 -4.204980 -5.985147 129.756927
4 129.756927 0.001550 0.000119 -0.537059 -4.124720 -0.157159 129.756927
[spine03]
3 78.614059 0.081773 -4.898989 1.623031 4.236909 12.166096 78.766594
4 78.614052 0.081765 -4.898990 1.355466 4.241382 8.533010 78.766586
[pelvis]
3 169.435242 0.051022 0.000000 -0.016780 -0.076768 5.354856 169.435257
4 169.435242 0.051022 0.000000 -0.001256 -0.117075 -1.986605 169.435257
[null_rope03_connect]
3 -1.257226 -2.466202 137.391083 -162.750549 -88.897484 -131.824310 137.418976
4 -1.257226 -2.466202 137.391083 -159.806335 -88.516411 -131.692123 137.418976
[null_rope04_connect]
3 -1.259640 -2.480268 -137.844437 -162.750549 -88.897484 -131.824310 137.872513
4 -1.259640 -2.480268 -137.844437 -159.806335 -88.516411 -131.692123 137.872513
[Rope3_Seg01]
3 0.000073 -0.000065 0.000000 -130.524841 8.695732 -75.778381 0.000098
4 0.000071 -0.000079 0.000000 -131.223862 -4.953635 -68.609718 0.000106
[Rope3_Seg02]
3 139.999924 -0.000119 0.000060 -0.771399 5.208304 -10.086757 139.999924
4 139.999924 -0.000119 0.000060 -6.406106 11.766294 -16.977463 139.999924
[Rope3_Seg03]
3 139.999924 -0.000119 0.000119 -3.276790 5.154439 -16.891075 139.999924
4 139.999924 -0.000119 0.000119 -7.014767 7.729686 -15.794497 139.999924
[Rope3_Seg04]
3 139.999924 0.000119 0.000000 -0.498595 5.370726 3.167239 139.999924
4 139.999924 0.000119 0.000000 -3.948574 9.711701 -1.789115 139.999924
[Rope3_Seg05]
3 139.999924 -0.000238 0.000060 1.065183 4.955691 22.084503 139.999924
4 139.999924 -0.000238 0.000060 -0.040562 15.621621 10.333592 139.999924
[Rope3_Seg06]
3 139.999893 -0.000119 -0.000060 -0.228394 4.132036 12.479487 139.999893
4 139.999893 -0.000119 -0.000060 1.529758 13.091192 6.617897 139.999893
[Rope3_Seg07]
3 139.999771 0.000060 -0.000119 -0.297602 1.934083 6.034046 139.999771
4 139.999771 0.000060 -0.000119 2.052511 8.896329 4.091565 139.999771
[Rope3_Seg08]
3 139.999985 -0.000060 0.000000 0.418347 0.211883 0.670107 139.999985
4 139.999985 -0.000060 0.000000 1.123644 2.794931 1.171938 139.999985
[Rope3_Seg09]
3 90.185997 -0.000179 -0.000060 89.793228 -1.359877 -0.847183 90.185997
4 90.185997 -0.000179 -0.000060 89.793228 -1.359877 -0.847183 90.185997
[R_rear_hand01]
3 103.366196 -6.073594 -10.757982 -176.562469 24.436451 -71.142044 104.101845
4 103.366196 -6.073594 -10.757982 -177.180405 24.516863 -72.637703 104.101845
[R_rear_hand02]
3 100.509819 12.039542 -7.992327 -14.693279 36.267807 69.111252 101.543350
4 100.509819 12.039542 -7.992327 -13.721433 36.601822 70.754135 101.543350
[R_rear_hand03]
3 101.539970 5.215704 5.435467 73.641991 -69.405350 19.228550 101.819031
4 101.539970 5.215704 5.435467 72.550484 -70.706764 20.388565 101.819031
[Rope4_Seg01]
3 -0.000010 0.000007 -0.000145 43.454754 11.165258 -123.979385 0.000146
4 -0.000010 -0.000008 -0.000142 53.106895 -13.152066 -128.663849 0.000142
[Rope4_Seg02]
3 139.999985 0.000060 0.000119 2.158514 2.551252 9.868268 139.999985
4 139.999985 0.000060 0.000119 5.287385 0.708731 12.685254 139.999985
[Rope4_Seg03]
3 139.999924 0.000000 -0.000238 2.120418 6.736130 22.491789 139.999924
4 139.999924 0.000000 -0.000238 4.811985 1.645466 17.103992 139.999924
[Rope4_Seg04]
3 139.999985 0.000000 0.000119 -0.720261 1.706352 7.772552 139.999985
4 139.999985 0.000000 0.000119 1.854026 6.505277 12.975657 139.999985
[Rope4_Seg05]
3 139.999802 -0.000060 -0.000119 1.025463 -3.052626 -7.705194 139.999802
4 139.999802 -0.000060 -0.000119 0.124487 2.363041 3.794125 139.999802
[Rope4_Seg06]
3 139.999924 0.000000 0.000060 0.190626 -0.801978 -1.557653 139.999924
4 139.999924 0.000000 0.000060 0.038850 1.178229 2.173457 139.999924
[Rope4_Seg07]
3 139.999802 0.000000 0.000000 0.168303 -0.452078 -0.869460 139.999802
4 139.999802 0.000000 0.000000 0.060017 0.742854 1.372069 139.999802
[Rope4_Seg08]
3 139.999924 0.000000 0.000119 -1.442278 -0.119993 -0.234239 139.999924
4 139.999924 0.000000 0.000119 -1.481116 0.249886 0.453470 139.999924
[Rope4_Seg09]
3 90.185791 0.000060 0.000060 -135.617828 2.228885 0.850567 90.185791
4 90.185791 0.000060 0.000060 -135.617828 2.228885 0.850567 90.185791
[L_rear_hand01]
3 101.696655 -8.392275 -7.654577 -14.718358 -36.257187 110.935326 102.329041
4 101.696655 -8.392275 -7.654577 -13.731910 -36.595154 109.269127 102.329041
[L_rear_hand02]
3 102.726799 -1.568258 5.773216 73.658264 69.371582 160.791580 102.900848
4 102.726799 -1.568258 5.773216 72.559784 70.689751 159.622818 102.900848
[L_rear_hand03]
3 104.552910 9.721220 -10.420293 -176.542313 -24.437103 -108.899315 105.519653
4 104.552910 9.721220 -10.420293 -177.172852 -24.512310 -107.383331 105.519653
